#!OML:ASF X:\für Bonn\!DataBase\2005_08_12_Daniel\c3d\Daniel.ASF
:FULLY-SPECIFIED
:DEGREES
423
root 15.8601 1.37018 1.12099 -763.858 -85.6869 -433.123
lowerback 26.2498 -2.82917 1.28378
upperback 7.8178 -4.06244 -0.573444
thorax -5.96158 -2.30846 -0.0863767
lowerneck -8.21392 2.70217 -5.65186
upperneck 1.58602 4.06878 0.27505
head 1.78301 1.95333 1.21382
rclavicle 4.13472e-014 -5.94615e-014
rhumerus -46.611 -22.3801 -60.9897
rradius 10.7987
rwrist 78.7897
rhand -13.1647 -342.006
rfingers 7.12502
rthumb 12.9344 -371.586
lclavicle 4.13472e-014 -5.94615e-014
lhumerus -767.744 23.7643 -657.185
lradius 17.1948
lwrist -65.5136
lhand -10.7263 350.631
lfingers 7.12502
lthumb 15.2841 380.046
rfemur 392.587 18.4851 387.879
rtibia 12.4236
rfoot -31.2749 -34.3717
rtoes 32.3524
lfemur 20.5655 -26.7199 -27.151
ltibia 31.8396
lfoot -9.33427 28.9031
ltoes 13.5512
424
root 15.8629 1.36869 1.1218 -763.777 -85.691 -433.148
lowerback 26.1682 -2.82023 1.29285
upperback 7.81091 -4.04686 -0.574673
thorax -5.92975 -2.29961 -0.101845
lowerneck -8.02008 2.67902 -5.6675
upperneck 1.42302 4.02287 0.320609
head 1.69541 1.93576 1.22185
rclavicle -3.18055e-015 -1.98785e-014
rhumerus -46.3847 -21.6409 -61.6115
rradius 10.891
rwrist 77.9501
rhand -12.5247 -342.418
rfingers 7.12502
rthumb 13.5513 -371.957
lclavicle -3.18055e-015 -1.98785e-014
lhumerus -768.152 24.5061 -658.066
lradius 16.7751
lwrist -67.138
lhand -10.4386 350.74
lfingers 7.12502
lthumb 15.5612 380.134
rfemur 392.538 18.5772 387.921
rtibia 12.4639
rfoot -31.6175 -34.3134
rtoes 32.3905
lfemur 20.5244 -26.6838 -27.0373
ltibia 31.8569
lfoot -10.2008 29.0792
ltoes 13.6911
425
root 15.8645 1.3664 1.12191 -763.561 -85.6781 -433.331
lowerback 26.1181 -2.8165 1.30585
upperback 7.80768 -4.03797 -0.581239
thorax -5.90996 -2.29441 -0.121719
lowerneck -7.83196 2.65078 -5.68514
upperneck 1.27868 3.97119 0.380953
head 1.61523 1.91537 1.2354
rclavicle -4.29375e-014 5.40694e-014
rhumerus -46.1879 -20.9023 -62.23
rradius 11.001
rwrist 77.0831
rhand -11.8722 -342.791
rfingers 7.12502
rthumb 14.1802 -372.287
lclavicle -4.29375e-014 5.40694e-014
lhumerus -768.505 25.1169 -658.838
lradius 16.3859
lwrist -68.513
lhand -9.88966 350.966
lfingers 7.12502
lthumb 16.0899 380.318
rfemur 392.561 18.766 388.074
rtibia 12.4775
rfoot -32.1761 -34.2362
rtoes 32.4275
lfemur 20.4756 -26.6061 -26.8854
ltibia 31.8736
lfoot -10.8627 29.1865
ltoes 13.7896
426
root 15.8667 1.36521 1.12189 -763.568 -85.6752 -433.261
lowerback 26.0027 -2.80177 1.29564
upperback 7.82763 -4.02186 -0.583663
thorax -5.83068 -2.28631 -0.130473
lowerneck -7.66236 2.62387 -5.68821
upperneck 1.08662 3.92006 0.419397
head 1.5237 1.89515 1.23912
rclavicle 7.15625e-014 -5.00813e-014
rhumerus -46.0339 -20.5362 -62.5471
rradius 11.0783
rwrist 76.7147
rhand -11.2674 -343.162
rfingers 7.12502
rthumb 14.7629 -372.617
lclavicle 7.15625e-014 -5.00813e-014
lhumerus -768.84 25.8386 -659.677
lradius 16.0108
lwrist -69.9752
lhand -9.22582 351.238
lfingers 7.12502
lthumb 16.7291 380.537
rfemur 392.544 18.9001 388.14
rtibia 12.4656
rfoot -32.5279 -34.1832
rtoes 32.5122
lfemur 20.4167 -26.5734 -26.7717
ltibia 31.8899
lfoot -11.6705 29.2543
ltoes 14.1577
427
root 15.8694 1.36282 1.12261 -763.397 -85.6637 -433.383
lowerback 25.9296 -2.80055 1.31494
upperback 7.83353 -4.01583 -0.597978
thorax -5.79052 -2.2827 -0.16301
lowerneck -7.49978 2.59881 -5.70355
upperneck 0.916699 3.87305 0.491042
head 1.44014 1.87735 1.25643
rclavicle 1.20861e-013 -1.58804e-013
rhumerus -45.9359 -20.2912 -62.7747
rradius 11.1544
rwrist 76.547
rhand -10.6499 -343.488
rfingers 7.12502
rthumb 15.3578 -372.897
lclavicle 1.20861e-013 -1.58804e-013
lhumerus -769.047 26.2553 -660.247
lradius 15.695
lwrist -71.0266
lhand -8.40376 351.633
lfingers 7.12502
lthumb 17.5203 380.863
rfemur 392.552 19.0276 388.234
rtibia 12.4281
rfoot -32.9002 -34.1259
rtoes 32.5293
lfemur 20.3182 -26.4446 -26.569
ltibia 31.9005
lfoot -12.1862 29.2254
ltoes 14.4225
428
root 15.8718 1.36185 1.12239 -763.168 -85.6661 -433.558
lowerback 25.8362 -2.79619 1.31053
upperback 7.84563 -4.01098 -0.58562
thorax -5.73009 -2.28033 -0.153986
lowerneck -7.34013 2.57987 -5.7318
upperneck 0.737382 3.83561 0.530021
head 1.35435 1.86315 1.26581
rclavicle -3.73715e-014 -3.557e-014
rhumerus -45.8412 -20.1309 -62.8827
rradius 11.2226
rwrist 76.5458
rhand -10.0984 -343.814
rfingers 7.12502
rthumb 15.8889 -373.182
lclavicle -3.73715e-014 -3.557e-014
lhumerus -769.323 26.8275 -660.913
lradius 15.4176
lwrist -72.2894
lhand -7.63784 351.943
lfingers 7.12502
lthumb 18.2573 381.106
rfemur 392.595 19.2263 388.403
rtibia 12.3678
rfoot -33.3908 -34.0587
rtoes 32.5249
lfemur 20.1869 -26.2214 -26.2739
ltibia 31.9057
lfoot -12.4884 29.116
ltoes 14.5446
429
root 15.8753 1.36105 1.12266 -763.109 -85.6606 -433.577
lowerback 25.7657 -2.78989 1.30962
upperback 7.84935 -4.00293 -0.592368
thorax -5.69177 -2.27578 -0.167161
lowerneck -7.17899 2.56075 -5.75325
upperneck 0.588407 3.79805 0.594023
head 1.27813 1.84916 1.28264
rclavicle -1.43125e-014 -4.89507e-015
rhumerus -45.7394 -19.8161 -63.1444
rradius 11.2931
rwrist 76.3176
rhand -9.62313 -344.116
rfingers 7.12502
rthumb 16.3465 -373.447
lclavicle -1.43125e-014 -4.89507e-015
lhumerus -769.505 27.1747 -661.383
lradius 15.2133
lwrist -73.3121
lhand -6.86096 352.244
lfingers 7.12502
lthumb 19.0045 381.335
rfemur 392.648 19.3623 388.507
rtibia 12.2706
rfoot -33.6344 -34.0973
rtoes 32.401
lfemur 20.0636 -25.9916 -25.9996
ltibia 31.9062
lfoot -12.7244 28.9888
ltoes 14.7191
430
root 15.8789 1.36012 1.12236 -763.028 -85.6456 -433.616
lowerback 25.6983 -2.78023 1.29654
upperback 7.8553 -3.99334 -0.593019
thorax -5.65123 -2.27068 -0.167166
lowerneck -7.00618 2.53582 -5.75534
upperneck 0.396559 3.75003 0.627903
head 1.18749 1.82983 1.28533
rclavicle -6.44062e-014 1.0958e-014
rhumerus -45.674 -19.5959 -63.3139
rradius 11.3695
rwrist 76.2188
rhand -9.21118 -344.367
rfingers 7.12502
rthumb 16.7432 -373.665
lclavicle -6.44062e-014 1.0958e-014
lhumerus -769.647 27.479 -661.775
lradius 15.0585
lwrist -74.2354
lhand -6.19036 352.48
lfingers 7.12502
lthumb 19.6494 381.507
rfemur 392.68 19.4156 388.547
rtibia 12.1638
rfoot -33.7419 -34.1483
rtoes 32.3574
lfemur 19.983 -25.8469 -25.8044
ltibia 31.8994
lfoot -12.9906 28.8757
ltoes 14.8528
431
root 15.8833 1.36006 1.12251 -762.819 -85.6501 -433.751
lowerback 25.5802 -2.77908 1.30709
upperback 7.86798 -3.98953 -0.593304
thorax -5.57986 -2.26843 -0.181386
lowerneck -6.90518 2.51938 -5.78606
upperneck 0.234188 3.71971 0.690147
head 1.11765 1.81891 1.30473
rclavicle 8.0309e-014 -4.91247e-014
rhumerus -45.6083 -19.5454 -63.3629
rradius 11.4053
rwrist 76.2819
rhand -8.83514 -344.596
rfingers 7.12502
rthumb 17.1051 -373.863
lclavicle 8.0309e-014 -4.91247e-014
lhumerus -769.766 27.7961 -662.132
lradius 14.9571
lwrist -75.1221
lhand -5.67995 352.668
lfingers 7.12502
lthumb 20.14 381.644
rfemur 392.631 19.3801 388.515
rtibia 12.0793
rfoot -33.6075 -34.1765
rtoes 32.3742
lfemur 19.872 -25.7141 -25.5921
ltibia 31.8806
lfoot -13.1038 28.7791
ltoes 14.8729
432
root 15.8878 1.35932 1.12194 -762.669 -85.6377 -433.86
lowerback 25.5188 -2.77854 1.29995
upperback 7.86462 -3.99011 -0.594289
thorax -5.55314 -2.26812 -0.181366
lowerneck -6.78541 2.50357 -5.80243
upperneck 0.121884 3.69003 0.733049
head 1.0612 1.80727 1.31602
rclavicle 1.27222e-014 7.93896e-015
rhumerus -45.5199 -19.2592 -63.5912
rradius 11.4418
rwrist 75.9996
rhand -8.5114 -344.757
rfingers 7.12502
rthumb 17.4167 -373.997
lclavicle 1.27222e-014 7.93896e-015
lhumerus -769.802 27.902 -662.262
lradius 14.9051
lwrist -75.6232
lhand -5.31914 352.835
lfingers 7.12502
lthumb 20.4868 381.774
rfemur 392.616 19.3646 388.509
rtibia 12.0044
rfoot -33.3803 -34.2413
rtoes 32.4663
lfemur 19.787 -25.5636 -25.3858
ltibia 31.8554
lfoot -13.1364 28.6633
ltoes 14.7522
